<svg width="50" height="52" viewBox="0 0 50 52" fill="none" xmlns="http://www.w3.org/2000/svg">
<path d="M47.9456 12.7735L26.9531 1.08728C25.7394 0.411603 24.262 0.414035 23.0505 1.0937L12.5931 6.96036L2.21093 12.7848C0.95886 13.4872 0.179246 14.8067 0.168135 16.2423L0.0183554 35.5938C0.00703827 37.0559 0.794454 38.4077 2.07189 39.1192L23.0536 50.8055C24.2637 51.4794 25.7363 51.4794 26.9464 50.8055L47.9464 39.1091C49.2141 38.403 50 37.0657 50 35.6146V16.2685C50 14.817 49.2138 13.4795 47.9456 12.7735Z" fill="#284AC2"/>
<path d="M15.8047 33.956C16.6645 30.0385 16.5789 30.6545 17.5066 26.4111C17.6071 25.9515 18.0148 25.6191 18.4852 25.6191H33.3886C34.0217 25.6191 34.4955 26.2001 34.3682 26.8202L33.8172 29.5039C33.7217 29.9689 33.3124 30.3028 32.8376 30.3028H23.619C23.1414 30.3028 22.7304 30.6405 22.6379 31.1091L21.9948 34.3662C21.9023 34.8348 21.4913 35.1725 21.0137 35.1725H16.7798C16.142 35.1725 15.6679 34.579 15.8047 33.956Z" fill="white"/>
<path fill-rule="evenodd" clip-rule="evenodd" d="M0.779499 38.3991H20.318C20.7885 38.3991 21.1962 38.0666 21.2966 37.6069C21.776 35.4117 21.9844 34.5171 22.1929 33.6224C22.3874 32.7876 22.582 31.9529 22.9965 30.0619C23.133 29.439 22.659 28.8457 22.0213 28.8457H17.7949C17.3172 28.8457 16.9062 29.1836 16.8138 29.6522L16.1715 32.9089C16.0791 33.3776 15.6681 33.7154 15.1904 33.7154H0.0328908L0 37.9649L0.779499 38.3991Z" fill="white"/>
<path d="M38.3138 17.6807L43.0538 20.8407L38.5245 24.106C38.5245 24.106 37.4962 22.1803 37.4712 20.8407C37.4473 19.5637 38.3138 17.6807 38.3138 17.6807Z" fill="white" stroke="white"/>
<path d="M19.1758 19.2627L18.5209 22.1002C18.3763 22.7268 18.8522 23.325 19.4953 23.325H39C39.5523 23.325 40 22.8773 40 22.325V19.5158C40 18.9641 39.5532 18.5167 39.0015 18.5158L20.1516 18.4875C19.6854 18.4868 19.2806 18.8084 19.1758 19.2627Z" fill="white"/>
</svg>
